<!DOCTYPE svg PUBLIC "-//W3C//DTD SVG 1.1//EN" "http://www.w3.org/Graphics/SVG/1.1/DTD/svg11.dtd">
<!-- Uploaded to: SVG Repo, www.svgrepo.com, Transformed by: SVG Repo Mixer Tools -->
<svg width="256px" height="256px" viewBox="0 0 18.00 18.00" xmlns="http://www.w3.org/2000/svg" fill="#57c785" stroke="#57c785" stroke-width="0.8099999999999999">
<g id="SVGRepo_bgCarrier" stroke-width="0"/>
<g id="SVGRepo_tracerCarrier" stroke-linecap="round" stroke-linejoin="round"/>
<g id="SVGRepo_iconCarrier"> <path fill="#57c785" d="M9 12a3.14 3.14 0 0 1-1.64-.462L0 7.056V14a1 1 0 0 0 1 1h16a1 1 0 0 0 1-1V7.056l-7.354 4.48A3.148 3.148 0 0 1 9 12z"/> <path fill="#57c785" d="M17.466 5.04L9.6 9.83a1.144 1.144 0 0 1-1.2 0L.534 5.04a1.09 1.09 0 0 1-.49-1.24 1.14 1.14 0 0 1 1.09-.8h15.733a1.138 1.138 0 0 1 1.09.8 1.09 1.09 0 0 1-.49 1.24z"/> </g>
</svg>